<mxfile host="app.diagrams.net" agent="Mozilla/5.0 (Windows NT 10.0; Win64; x64) AppleWebKit/537.36 (KHTML, like Gecko) Chrome/131.0.0.0 Safari/537.36 Edg/131.0.0.0" version="25.0.1">
  <diagram name="หน้า-1" id="g8MdfXpyy-dBZotpRrYf">
    <mxGraphModel dx="3029" dy="1358" grid="1" gridSize="10" guides="1" tooltips="1" connect="1" arrows="1" fold="1" page="1" pageScale="1" pageWidth="827" pageHeight="1169" math="0" shadow="0">
      <root>
        <mxCell id="0" />
        <mxCell id="1" parent="0" />
        <mxCell id="v_7UHIK6XVN8dzDJ5pvb-1" value="" style="edgeStyle=orthogonalEdgeStyle;rounded=0;orthogonalLoop=1;jettySize=auto;html=1;" edge="1" parent="1" source="v_7UHIK6XVN8dzDJ5pvb-2" target="v_7UHIK6XVN8dzDJ5pvb-4">
          <mxGeometry relative="1" as="geometry" />
        </mxCell>
        <mxCell id="v_7UHIK6XVN8dzDJ5pvb-2" value="Start" style="ellipse;whiteSpace=wrap;html=1;" vertex="1" parent="1">
          <mxGeometry x="353" y="40" width="120" height="80" as="geometry" />
        </mxCell>
        <mxCell id="v_7UHIK6XVN8dzDJ5pvb-3" value="" style="edgeStyle=orthogonalEdgeStyle;rounded=0;orthogonalLoop=1;jettySize=auto;html=1;" edge="1" parent="1" source="v_7UHIK6XVN8dzDJ5pvb-4" target="v_7UHIK6XVN8dzDJ5pvb-6">
          <mxGeometry relative="1" as="geometry" />
        </mxCell>
        <mxCell id="v_7UHIK6XVN8dzDJ5pvb-4" value="รับข้อมูลStartUser&amp;nbsp;" style="shape=parallelogram;perimeter=parallelogramPerimeter;whiteSpace=wrap;html=1;fixedSize=1;" vertex="1" parent="1">
          <mxGeometry x="318" y="170" width="190" height="60" as="geometry" />
        </mxCell>
        <mxCell id="v_7UHIK6XVN8dzDJ5pvb-5" value="" style="edgeStyle=orthogonalEdgeStyle;rounded=0;orthogonalLoop=1;jettySize=auto;html=1;" edge="1" parent="1" source="v_7UHIK6XVN8dzDJ5pvb-6" target="v_7UHIK6XVN8dzDJ5pvb-13">
          <mxGeometry relative="1" as="geometry" />
        </mxCell>
        <mxCell id="v_7UHIK6XVN8dzDJ5pvb-6" value="รับข้อมูลEndUser&amp;nbsp;" style="shape=parallelogram;perimeter=parallelogramPerimeter;whiteSpace=wrap;html=1;fixedSize=1;" vertex="1" parent="1">
          <mxGeometry x="318" y="280" width="190" height="60" as="geometry" />
        </mxCell>
        <mxCell id="v_7UHIK6XVN8dzDJ5pvb-7" value="" style="edgeStyle=orthogonalEdgeStyle;rounded=0;orthogonalLoop=1;jettySize=auto;html=1;" edge="1" parent="1" source="v_7UHIK6XVN8dzDJ5pvb-9" target="v_7UHIK6XVN8dzDJ5pvb-15">
          <mxGeometry relative="1" as="geometry" />
        </mxCell>
        <mxCell id="v_7UHIK6XVN8dzDJ5pvb-8" style="edgeStyle=orthogonalEdgeStyle;rounded=0;orthogonalLoop=1;jettySize=auto;html=1;" edge="1" parent="1" source="v_7UHIK6XVN8dzDJ5pvb-9" target="v_7UHIK6XVN8dzDJ5pvb-20">
          <mxGeometry relative="1" as="geometry" />
        </mxCell>
        <mxCell id="v_7UHIK6XVN8dzDJ5pvb-9" value="Loop Start ถึง END" style="rhombus;whiteSpace=wrap;html=1;" vertex="1" parent="1">
          <mxGeometry x="339.5" y="460" width="147" height="80" as="geometry" />
        </mxCell>
        <mxCell id="v_7UHIK6XVN8dzDJ5pvb-10" value="Y" style="text;html=1;align=center;verticalAlign=middle;whiteSpace=wrap;rounded=0;" vertex="1" parent="1">
          <mxGeometry x="354" y="540" width="60" height="30" as="geometry" />
        </mxCell>
        <mxCell id="v_7UHIK6XVN8dzDJ5pvb-11" value="N" style="text;html=1;align=center;verticalAlign=middle;whiteSpace=wrap;rounded=0;" vertex="1" parent="1">
          <mxGeometry x="458" y="460" width="60" height="30" as="geometry" />
        </mxCell>
        <mxCell id="v_7UHIK6XVN8dzDJ5pvb-12" value="" style="edgeStyle=orthogonalEdgeStyle;rounded=0;orthogonalLoop=1;jettySize=auto;html=1;" edge="1" parent="1" source="v_7UHIK6XVN8dzDJ5pvb-13" target="v_7UHIK6XVN8dzDJ5pvb-9">
          <mxGeometry relative="1" as="geometry" />
        </mxCell>
        <mxCell id="v_7UHIK6XVN8dzDJ5pvb-13" value="" style="ellipse;whiteSpace=wrap;html=1;aspect=fixed;" vertex="1" parent="1">
          <mxGeometry x="400.5" y="390" width="25" height="25" as="geometry" />
        </mxCell>
        <mxCell id="v_7UHIK6XVN8dzDJ5pvb-14" value="" style="edgeStyle=orthogonalEdgeStyle;rounded=0;orthogonalLoop=1;jettySize=auto;html=1;" edge="1" parent="1" source="v_7UHIK6XVN8dzDJ5pvb-15" target="v_7UHIK6XVN8dzDJ5pvb-19">
          <mxGeometry relative="1" as="geometry" />
        </mxCell>
        <mxCell id="v_7UHIK6XVN8dzDJ5pvb-15" value="Loop J ถึง 9" style="rhombus;whiteSpace=wrap;html=1;" vertex="1" parent="1">
          <mxGeometry x="539.5" y="570" width="147" height="80" as="geometry" />
        </mxCell>
        <mxCell id="v_7UHIK6XVN8dzDJ5pvb-16" value="Y" style="text;html=1;align=center;verticalAlign=middle;whiteSpace=wrap;rounded=0;" vertex="1" parent="1">
          <mxGeometry x="508" y="570" width="60" height="30" as="geometry" />
        </mxCell>
        <mxCell id="v_7UHIK6XVN8dzDJ5pvb-17" value="N" style="text;html=1;align=center;verticalAlign=middle;whiteSpace=wrap;rounded=0;" vertex="1" parent="1">
          <mxGeometry x="658" y="570" width="60" height="30" as="geometry" />
        </mxCell>
        <mxCell id="v_7UHIK6XVN8dzDJ5pvb-18" style="edgeStyle=orthogonalEdgeStyle;rounded=0;orthogonalLoop=1;jettySize=auto;html=1;entryX=1;entryY=0.5;entryDx=0;entryDy=0;" edge="1" parent="1" source="v_7UHIK6XVN8dzDJ5pvb-19" target="v_7UHIK6XVN8dzDJ5pvb-13">
          <mxGeometry relative="1" as="geometry">
            <Array as="points">
              <mxPoint x="740" y="720" />
              <mxPoint x="740" y="403" />
            </Array>
          </mxGeometry>
        </mxCell>
        <mxCell id="v_7UHIK6XVN8dzDJ5pvb-19" value="แสดงข้อมูล แม่สูตรคูณ&amp;nbsp;" style="shape=parallelogram;perimeter=parallelogramPerimeter;whiteSpace=wrap;html=1;fixedSize=1;" vertex="1" parent="1">
          <mxGeometry x="518" y="690" width="190" height="60" as="geometry" />
        </mxCell>
        <mxCell id="v_7UHIK6XVN8dzDJ5pvb-20" value="End" style="ellipse;whiteSpace=wrap;html=1;" vertex="1" parent="1">
          <mxGeometry x="353" y="670" width="120" height="80" as="geometry" />
        </mxCell>
      </root>
    </mxGraphModel>
  </diagram>
</mxfile>
